<svg xmlns="http://www.w3.org/2000/svg" width="51.431" height="85.764" viewBox="0 0 51.431 85.764">
    <defs>
        <style>
            .cls-1{fill:#172b32}
        </style>
    </defs>
    <g id="click-gesture" transform="translate(-179.223)">
        <g id="Group_341" data-name="Group 341" transform="translate(179.222)">
            <path id="Path_1153" d="M328.177 833.987a1.921 1.921 0 0 0 1.916 1.916h28.313a1.921 1.921 0 0 0 1.916-1.916V829.6h-32.145z" class="cls-1" data-name="Path 1153" transform="translate(-313.91 -750.139)"/>
            <path id="Path_1154" d="M228.523 30.928l.01-14.013a6 6 0 0 1 1.734-4.262 6.938 6.938 0 0 1 4.9-1.954 6.716 6.716 0 0 1 3.965 1.255 5.81 5.81 0 0 1 2.318 4.138c0 .038.757 7.347 1.437 13.889a16.083 16.083 0 1 0-14.367.948z" class="cls-1" data-name="Path 1154" transform="translate(-214.898)"/>
            <path id="Path_1155" d="M230.653 177.25a4.3 4.3 0 0 0-2.979-4.1c-5.316-1.734-16.044-5.191-17.682-5.517a8.025 8.025 0 0 0-1.485-.144 4.745 4.745 0 0 0-3.1.958h-.01v-.01c-.01-.077-2.481-23.974-2.481-24.013a3.2 3.2 0 0 0-3.429-2.826 3.485 3.485 0 0 0-3.764 3.343l-.019 38.725a.918.918 0 0 1-.795.91h-.019a.546.546 0 0 1-.125.01h-.029c-1.3-.038-4.243-.077-7.107-4.224-.383-.546-.728-1.044-1.044-1.5a4.369 4.369 0 0 0-3.582-2.04 3.846 3.846 0 0 0-3.707 4.751c.69 4.147 5.23 13.812 14.176 22.873h32.145l3.247-5.488a12.566 12.566 0 0 0 1.772-6.437z" class="cls-1" data-name="Path 1155" transform="translate(-179.222 -128.037)"/>
        </g>
    </g>
</svg>
