<svg xmlns="http://www.w3.org/2000/svg" width="54.584" height="84" viewBox="0 0 54.584 84">
    <defs>
        <style>
            .cls-1{fill:#172b32}
        </style>
    </defs>
    <g id="payment-method" transform="translate(-84.359)">
        <g id="Group_322" data-name="Group 322" transform="translate(84.359)">
            <g id="Group_321" data-name="Group 321">
                <path id="Path_1148" d="M136.733 37.24c-.819-.645-8.055-8.613-12.152-12.326-.017-.017-.017-.017-.017-.035V7.724A7.738 7.738 0 0 0 116.84 0h-25.3a7.206 7.206 0 0 0-7.183 7.183v40.239a7.738 7.738 0 0 0 7.724 7.724h9.223a.545.545 0 0 0 .54-.593l-.4-3.417a.531.531 0 0 0-.54-.471h-1.1a.543.543 0 0 1-.54-.54V4.411a.543.543 0 0 1 .54-.54h17.086a3.147 3.147 0 0 1 3.138 3.138v41.023a2.636 2.636 0 0 1-1.918 2.511h-.035c-1.866-1.011-4.062-5.335-4.394-6.015a.336.336 0 0 1-.052-.174c-.122-1.1-1.36-11.734-7.026-11.734a4.248 4.248 0 0 0-.471.017s-4.533.384-.785 13.3c0 .035.017.052.017.087l1.656 14.314a.132.132 0 0 0 .017.07c.139.54 2.022 7.846 6.887 13.024a.563.563 0 0 1 .139.366v1.238a.046.046 0 0 1-.052.052h-.436a1.942 1.942 0 0 0-1.935 1.935v5.039A1.942 1.942 0 0 0 113.579 84H134.1a1.942 1.942 0 0 0 1.935-1.935v-5a1.942 1.942 0 0 0-1.935-1.935.046.046 0 0 1-.052-.052c.68-6.311 3.121-27.9 4.428-29.587a.545.545 0 0 0 .087-.174c.227-.789 1.36-5.583-1.83-8.077zm-44.3 12.919a.487.487 0 0 1-.488.488 3.11 3.11 0 0 1-3.1-3.1V6.974a3.11 3.11 0 0 1 3.1-3.1.487.487 0 0 1 .488.488z" class="cls-1" data-name="Path 1148" transform="translate(-84.359)"/>
            </g>
        </g>
    </g>
</svg>
